<svg width="50" height="50" viewBox="0 0 50 50" fill="none" xmlns="http://www.w3.org/2000/svg">
<path d="M33.6559 37.7284C33.9657 38.2649 34.3159 38.5064 34.8143 38.6808C36.9021 39.4051 38.2356 41.2696 38.1682 43.2683C38.0874 45.4413 36.6597 47.2656 34.5584 47.8156C34.1274 47.9363 33.6694 47.9899 33.2114 47.9899C27.864 48.0034 22.53 48.0034 17.1826 47.9899C14.6772 47.9899 12.576 46.2193 12.2797 43.8853C11.9564 41.3501 13.3976 39.2039 15.903 38.4795C16.2128 38.3856 16.4687 38.0905 16.7516 37.8893C16.7246 37.8357 16.6977 37.7954 16.6842 37.7418C16.5091 37.7284 16.334 37.715 16.1589 37.715C13.9095 37.715 11.6601 37.715 9.39716 37.715C6.27221 37.715 4.21136 35.6626 4.21136 32.5641C4.21136 28.7143 4.21136 24.8645 4.22483 21.0148C4.22483 20.6258 4.11707 20.3843 3.80727 20.1294C2.01581 18.6942 0.911306 16.8565 1.00559 14.4822C1.03253 13.8249 1.20764 13.1543 1.43662 12.5372C2.4199 9.81422 3.43012 7.10463 4.44034 4.39504C4.84443 3.30852 5.27546 3 6.42038 3C18.9471 3 31.4604 3 43.9736 3C45.1051 3 45.5496 3.30852 45.9267 4.3548C46.8966 6.97049 47.7855 9.62643 48.8362 12.2019C50.264 15.6626 48.5803 18.56 46.5868 20.1294C46.2635 20.3843 46.1423 20.6392 46.1423 21.0416C46.1557 24.8913 46.1557 28.7411 46.1557 32.5909C46.1557 35.6626 44.0949 37.7284 41.0103 37.7284C38.7474 37.7284 36.4711 37.7284 34.2082 37.7284C34.06 37.7284 33.8984 37.7284 33.6559 37.7284ZM42.95 22.0879C38.734 23.0671 35.3531 21.8867 32.7131 18.5466C30.8138 21.0684 28.3354 22.4366 25.197 22.4366C22.0451 22.4366 19.5667 21.0416 17.6675 18.5198C16.4822 20.1429 14.987 21.2964 13.1282 21.9403C11.2694 22.5842 9.38369 22.5708 7.45754 22.061C7.45754 22.2757 7.45754 22.4232 7.45754 22.5708C7.45754 25.9376 7.45754 29.2911 7.45754 32.6579C7.45754 33.9054 8.0502 34.5091 9.30287 34.5091C19.9035 34.5091 30.504 34.5091 41.1046 34.5091C42.3573 34.5091 42.95 33.9054 42.95 32.6579C42.95 29.4252 42.95 26.2059 42.95 22.9732C42.95 22.6915 42.95 22.4098 42.95 22.0879ZM19.3108 6.23273C19.2973 6.34004 19.2704 6.40711 19.2704 6.48759C19.2704 8.78136 19.2569 11.0751 19.2839 13.3689C19.2973 15.0322 19.8765 16.4943 21.1292 17.6211C23.0149 19.3112 25.224 19.7002 27.5407 18.7344C29.8979 17.7418 31.0428 15.837 31.0967 13.3152C31.1506 11.0885 31.1102 8.86184 31.1102 6.63514C31.1102 6.50101 31.0832 6.38028 31.0698 6.23273C27.1501 6.23273 23.2439 6.23273 19.3108 6.23273ZM34.3833 6.21932C34.3698 6.34004 34.3429 6.40711 34.3429 6.47418C34.3429 8.88867 34.3429 11.2897 34.3563 13.7042C34.3698 14.8176 34.7335 15.8504 35.3935 16.7492C38.4107 20.8672 43.8794 19.271 45.7516 16.3467C46.2096 15.6224 46.3308 14.8444 46.048 14.0396C45.1455 11.5178 44.2026 9.0228 43.2598 6.51442C43.2059 6.38028 42.9769 6.24614 42.8287 6.24614C42.1687 6.21932 41.5222 6.23273 40.8622 6.23273C38.7205 6.21932 36.5788 6.21932 34.3833 6.21932ZM16.0242 6.25956C15.9434 6.24614 15.903 6.21932 15.8491 6.21932C13.0744 6.21932 10.2996 6.2059 7.52488 6.23273C7.37672 6.23273 7.14774 6.42052 7.09386 6.58149C6.17792 8.99598 5.28893 11.4239 4.38647 13.8652C4.02279 14.8578 4.18442 15.77 4.81749 16.615C5.67955 17.7686 6.86487 18.4795 8.2253 18.9222C11.9025 20.116 15.7952 17.715 16.0107 13.9859C16.132 11.4239 16.0242 8.84842 16.0242 6.25956ZM25.1431 44.784C27.864 44.784 30.5849 44.7975 33.3057 44.784C34.2486 44.784 34.9086 44.1402 34.949 43.228C34.9894 42.3293 34.3833 41.6452 33.4135 41.5781C32.7804 41.5379 32.309 41.2696 31.9183 40.7867C31.191 39.8612 30.4636 38.949 29.7093 38.0503C29.5746 37.8893 29.3052 37.7552 29.0897 37.7552C26.517 37.7418 23.9443 37.7418 21.3851 37.7552C21.1696 37.7552 20.9002 37.8893 20.7655 38.0503C19.9843 38.949 19.23 39.8612 18.4757 40.7867C18.0716 41.283 17.5867 41.5647 16.9267 41.5781C16.2128 41.605 15.674 42.061 15.5124 42.7183C15.2295 43.8317 15.9569 44.7706 17.1422 44.7706C19.7957 44.784 22.4761 44.784 25.1431 44.784Z" fill="#EF3829"/>
<path d="M27.5058 29.8021C27.5058 31.1887 26.378 32.3119 24.9995 32.3119C23.6349 32.3119 22.521 31.1887 22.5071 29.8298C22.5071 28.4432 23.6349 27.32 25.0134 27.3339C26.3919 27.3339 27.5058 28.4432 27.5058 29.8021Z" fill="#EF3829"/>
</svg>
