<svg width="50" height="50" viewBox="0 0 50 50" fill="none" xmlns="http://www.w3.org/2000/svg">
<path d="M0 6.91027C0.319703 5.99334 0.856804 5.28017 1.86707 5.06368C2.08446 5.01274 2.31465 5 2.53205 5C13.9263 5 25.3077 5 36.7019 5C38.2621 5 39.2468 5.98061 39.2468 7.52156C39.2468 9.95398 39.2468 12.3864 39.2468 14.8188C39.2468 14.9971 39.2468 15.1627 39.2468 15.3792C42.7123 15.9395 45.449 17.6333 47.3161 20.6006C48.5693 22.5745 49.1192 24.765 48.9785 27.0955C48.8123 29.7571 47.8148 32.0877 45.9861 34.0362C44.1702 35.9719 41.9195 37.1053 39.2468 37.5001C39.2468 38.4171 39.2468 39.3212 39.2468 40.2254C39.2468 40.7476 39.2595 41.2697 39.2468 41.7919C39.2084 43.0399 38.1981 44.0333 36.9449 44.0715C36.5996 44.0842 36.2416 44.0715 35.8963 44.0715C24.9241 44.0715 13.9391 44.0587 2.96685 44.0842C1.48342 44.0842 0.485949 43.5748 0 42.1612C0 30.4194 0 18.6648 0 6.91027ZM36.3566 41.2188C36.3566 39.958 36.3566 38.7354 36.3566 37.5001C33.6456 37.0926 31.3693 35.921 29.5406 33.9088C27.6991 31.8839 26.74 29.5024 26.6505 26.7771C26.5737 24.4084 27.2003 22.2179 28.5431 20.2567C30.423 17.4932 33.0701 15.9013 36.3566 15.3919C36.3566 12.8703 36.3566 10.3742 36.3566 7.89088C32.7888 7.89088 29.2337 7.89088 25.6658 7.89088C25.6658 8.10738 25.6658 8.27294 25.6658 8.45123C25.6658 10.9473 25.6658 13.4434 25.6658 15.9268C25.6658 17.2767 24.745 17.9007 23.4918 17.3913C22.2897 16.9074 21.1132 16.4107 19.9111 15.9522C19.7193 15.8758 19.438 15.8758 19.2461 15.9522C18.0952 16.4107 16.9571 16.9074 15.8061 17.3786C14.5401 17.9007 13.5938 17.2767 13.5938 15.914C13.5938 13.4052 13.5938 10.8964 13.5938 8.38755C13.5938 8.22199 13.5938 8.0437 13.5938 7.87815C9.98753 7.87815 6.44522 7.87815 2.9029 7.87815C2.9029 19.0087 2.9029 30.101 2.9029 41.1933C14.0669 41.2188 25.1926 41.2188 36.3566 41.2188ZM46.1396 26.4333C46.1268 21.8868 42.3799 18.1682 37.8145 18.1809C33.2491 18.1809 29.5022 21.925 29.515 26.4587C29.515 31.0052 33.2619 34.7366 37.8273 34.7366C42.4054 34.7366 46.1523 31.0052 46.1396 26.4333ZM16.4711 14.0038C17.2128 13.6854 17.9034 13.4434 18.5556 13.1123C19.2461 12.7684 19.8855 12.7939 20.5633 13.1123C21.2667 13.4434 21.9956 13.6981 22.7501 14.0165C22.7501 11.9279 22.7501 9.91577 22.7501 7.90362C20.64 7.90362 18.5556 7.90362 16.4711 7.90362C16.4711 9.92851 16.4711 11.9279 16.4711 14.0038Z" fill="#EF3829"/>
<path d="M10.2434 32.6353C9.32265 32.6353 8.38911 32.6353 7.46837 32.6353C6.49647 32.6353 5.84428 32.0622 5.83149 31.2217C5.8187 30.3557 6.45811 29.7826 7.43 29.7826C9.32265 29.7826 11.2281 29.7826 13.1207 29.7826C14.067 29.7826 14.7064 30.3557 14.7192 31.1835C14.732 32.024 14.0543 32.6353 13.1079 32.6353C12.1488 32.6353 11.1897 32.6353 10.2434 32.6353Z" fill="#EF3829"/>
<path d="M9.30967 38.3534C8.65748 38.3534 8.00528 38.3661 7.35309 38.3534C6.45792 38.3406 5.8313 37.7293 5.8313 36.9143C5.8313 36.0865 6.45792 35.5007 7.35309 35.4879C8.65747 35.4752 9.96186 35.4752 11.2663 35.4879C12.1486 35.4879 12.8008 36.0992 12.8008 36.9015C12.8008 37.7039 12.1486 38.3151 11.2663 38.3406C10.6141 38.3661 9.96186 38.3534 9.30967 38.3534Z" fill="#EF3829"/>
<path d="M40.4104 22.0524C41.1265 22.1033 41.5613 22.3198 41.8298 22.8165C42.0984 23.3004 42.06 23.7971 41.7787 24.2683C41.702 24.3829 41.5997 24.4975 41.5101 24.5994C39.6559 26.4587 37.8016 28.3053 35.9345 30.1519C35.0777 31.0052 33.7733 30.6995 33.4664 29.5916C33.313 29.0694 33.4408 28.5982 33.8117 28.2289C35.7299 26.3059 37.6609 24.3829 39.6047 22.4726C39.8477 22.2307 40.2313 22.1415 40.4104 22.0524Z" fill="#EF3829"/>
<path d="M42.3286 29.5788C42.3158 30.3047 41.6508 30.9415 40.8835 30.9288C40.1035 30.9288 39.4513 30.2283 39.4641 29.426C39.4768 28.7128 40.1802 28.0634 40.9219 28.0634C41.6892 28.0888 42.3286 28.7638 42.3286 29.5788Z" fill="#EF3829"/>
<path d="M34.7453 21.976C35.5254 21.9633 36.1776 22.6382 36.1904 23.4406C36.1904 24.1665 35.5254 24.8159 34.7709 24.8287C34.0036 24.8414 33.3259 24.1537 33.3259 23.3514C33.3131 22.6382 33.9908 21.9887 34.7453 21.976Z" fill="#EF3829"/>
</svg>
