<svg width="61" height="60" viewBox="0 0 61 60" fill="none" xmlns="http://www.w3.org/2000/svg">
<g clip-path="url(#clip0_5158_13996)">
<path d="M35.7627 46.9665C36.151 48.1389 36.5123 49.2617 36.9036 50.3724C36.9397 50.4748 37.1609 50.5636 37.2994 50.5696C37.8804 50.5922 38.4628 50.5696 39.0453 50.5816C40.5247 50.6162 41.6746 51.7601 41.7122 53.2411C41.7273 53.8235 41.7258 54.4075 41.7122 54.9899C41.6987 55.6506 41.36 55.9893 40.6903 55.9938C39.113 56.0028 37.5357 55.9968 35.9584 55.9968C30.4951 55.9968 25.0317 55.9968 19.5684 55.9968C18.5419 55.9968 18.2831 55.7334 18.2816 54.6889C18.2816 54.1998 18.271 53.7106 18.2861 53.2215C18.3282 51.7706 19.469 50.6253 20.9154 50.5831C21.4963 50.5666 22.0803 50.5982 22.6613 50.5666C22.8223 50.5575 23.0676 50.4311 23.1158 50.3002C23.471 49.3309 23.787 48.3466 24.1121 47.3668C24.1467 47.2615 24.1693 47.1531 24.2175 46.9665H23.5312C17.3921 46.9665 11.253 46.9665 5.11235 46.9665C3.12568 46.9665 2.05859 45.8949 2.05859 43.8962C2.0601 33.3051 2.0601 22.7156 2.0601 12.1245C2.0601 10.0912 3.11514 9.04067 5.15449 9.04067C10.8993 9.04067 16.6441 9.02863 22.3904 9.05572C23.1248 9.05873 23.7449 8.92027 24.3078 8.45671C24.5652 8.2445 24.8601 8.07443 25.1295 7.89081C24.1648 4.67602 24.7728 2.41543 26.9868 0.92091C28.9313 -0.391496 31.514 -0.287647 33.3486 1.16021C34.8778 2.36576 36.1781 4.84308 34.8417 7.88178C35.3759 8.23848 35.9087 8.61926 36.4701 8.95037C36.6447 9.05271 36.9021 9.03916 37.1218 9.03916C43.0352 9.04368 48.95 9.04217 54.8634 9.04217C56.8907 9.04217 57.9382 10.0987 57.9382 12.1471C57.9382 22.7186 57.9382 33.2916 57.9382 43.8631C57.9382 45.928 56.8877 46.9695 54.8092 46.9695C48.6881 46.9695 42.5686 46.9695 36.4475 46.9695H35.7627V46.9665ZM13.0726 36.4221C11.5254 33.8575 11.6774 31.633 13.503 30.0091C15.1134 28.5778 17.5652 28.5025 19.2568 29.8405C20.0951 30.5042 20.6415 31.3636 20.8748 32.4111C21.2074 33.9072 20.7935 35.2241 19.8634 36.4116C22.1014 37.4154 22.9442 39.1944 22.7922 41.5062H29.0698V27.1344H3.90078V41.5047H10.1814C10.0158 39.1342 10.9008 37.4019 13.0726 36.4221ZM56.1111 27.1404H30.9466V41.5182H37.2151C37.0496 39.1568 37.9255 37.3989 40.1169 36.4206C38.5667 33.9869 38.6841 31.7715 40.4314 30.1129C41.9997 28.6244 44.4213 28.4694 46.1747 29.7517C47.0401 30.3853 47.615 31.2297 47.8799 32.2666C48.2743 33.8063 47.8664 35.1819 46.9031 36.4191C49.1622 37.4245 49.975 39.2215 49.838 41.5212H56.1126V27.1419L56.1111 27.1404ZM22.7907 10.8452C22.5544 10.8452 22.3888 10.8452 22.2233 10.8452C16.5161 10.8452 10.809 10.8452 5.10181 10.8452C4.14309 10.8452 3.86466 11.1252 3.86466 12.0869C3.86466 16.301 3.86466 20.5137 3.86466 24.7278C3.86466 24.9084 3.88121 25.0875 3.88874 25.2651H10.1753C10.0128 22.9082 10.8797 21.1443 13.0771 20.166C11.5329 17.6691 11.6593 15.4657 13.4278 13.8222C15.0096 12.3518 17.4402 12.2224 19.1756 13.5242C20.0334 14.1669 20.5993 15.0172 20.8537 16.0572C21.2269 17.5818 20.8176 18.9394 19.8664 20.157C22.1134 21.1684 22.9442 22.9549 22.7967 25.2636H29.0623V14.4574C27.8477 14.4574 26.6677 14.4709 25.4877 14.4543C23.9737 14.4318 22.8268 13.2774 22.7907 11.7663C22.7847 11.4864 22.7907 11.2064 22.7907 10.8467V10.8452ZM56.1366 25.2651V24.6721C56.1366 20.4956 56.1366 16.3206 56.1366 12.1441C56.1366 11.1071 55.8748 10.8452 54.8423 10.8452C49.1728 10.8452 43.5032 10.8452 37.8337 10.8452H37.2061C37.2061 11.2426 37.2196 11.5601 37.2046 11.8777C37.1384 13.2714 36.0171 14.3926 34.6249 14.4513C34.1373 14.4724 33.6481 14.4574 33.1605 14.4574C32.417 14.4574 31.675 14.4574 30.9481 14.4574V25.2606H37.2091C37.17 24.1695 37.2497 23.131 37.7946 22.1828C38.3364 21.2391 39.1326 20.5919 40.1244 20.169C38.5396 17.7098 38.7081 15.3664 40.5624 13.7379C42.2134 12.2871 44.7314 12.26 46.405 13.6732C48.3119 15.2836 48.503 17.615 46.9242 20.169C49.1261 21.1443 49.9825 22.9142 49.829 25.2666H56.1397L56.1366 25.2651ZM3.90228 43.3724C3.76081 44.9151 3.98055 45.1604 5.44797 45.1604C21.8515 45.1604 38.2566 45.1604 54.6602 45.1604C54.8664 45.1604 55.0756 45.174 55.2788 45.1529C55.7709 45.1002 56.0704 44.8173 56.1231 44.3251C56.1562 44.0166 56.1291 43.702 56.1291 43.3739H3.90228V43.3724ZM20.0891 54.1531H39.8791C40.007 52.6104 39.8038 52.3847 38.3259 52.3847C32.7165 52.3847 27.1087 52.3847 21.4994 52.3847C21.3308 52.3847 21.1607 52.3771 20.9937 52.3877C20.4549 52.4268 20.1283 52.7444 20.0921 53.2802C20.0741 53.5586 20.0891 53.8386 20.0891 54.1531ZM35.0478 50.553C34.6686 49.4092 34.3194 48.321 33.9326 47.2464C33.8859 47.1155 33.6361 46.9785 33.4811 46.9785C31.1528 46.962 28.826 46.962 26.4976 46.9785C26.3516 46.9785 26.1184 47.0974 26.0762 47.2148C25.6879 48.3075 25.3327 49.4122 24.9535 50.5545H35.0478V50.553ZM30.0044 9.03916C31.9971 9.03465 33.6105 7.40769 33.603 5.40898C33.5955 3.43886 31.9866 1.82394 30.0225 1.81642C28.0268 1.80889 26.4028 3.4208 26.3953 5.41801C26.3878 7.4122 28.0132 9.04368 30.0029 9.03916H30.0044ZM20.9876 25.2666C20.9876 25.0153 20.9876 24.8272 20.9876 24.6405C20.9831 22.8044 19.8784 21.6876 18.0573 21.6831C17.064 21.6816 16.0721 21.6831 15.0788 21.6831C12.8694 21.6831 11.7195 23.0241 12.0311 25.2666H20.9876ZM48.0259 25.2712C48.0259 25.0695 48.0259 24.9054 48.0259 24.7399C48.0334 22.7652 46.9528 21.6831 44.9707 21.6831C43.9969 21.6831 43.0216 21.6831 42.0478 21.6831C39.9092 21.6831 38.7187 23.1114 39.0784 25.2712H48.0259ZM20.9876 41.5257C20.9876 41.3256 20.9876 41.16 20.9876 40.9944C20.9952 39.0198 19.9145 37.9377 17.9324 37.9377C16.9586 37.9377 15.9833 37.9377 15.0096 37.9377C12.8709 37.9377 11.6804 39.3675 12.0401 41.5257H20.9876ZM39.0377 41.5137H48.0259C48.0259 41.2563 48.0259 41.0336 48.0259 40.8108C48.0154 39.086 46.8896 37.9452 45.1814 37.9377C44.0195 37.9317 42.8576 37.9271 41.6972 37.9407C40.7731 37.9512 40.0401 38.3561 39.4998 39.1026C38.9821 39.819 38.9655 40.6377 39.0392 41.5137H39.0377ZM26.2117 9.35071C25.9709 9.51025 25.7391 9.70891 25.4727 9.83233C24.7548 10.1619 24.4959 10.6721 24.5742 11.4743C24.6615 12.3458 24.8948 12.6498 25.7797 12.6513C28.3865 12.6528 30.9932 12.6513 33.6 12.6513C35.3308 12.6513 35.4497 12.5294 35.4076 10.7956C35.4076 10.7579 35.4196 10.7143 35.4045 10.6842C35.3338 10.5457 35.2887 10.3666 35.1743 10.2838C34.7228 9.95424 34.2487 9.65473 33.7911 9.34921C31.4779 11.3524 28.4933 11.3253 26.2102 9.35221L26.2117 9.35071ZM19.1831 17.1981C19.1906 15.6915 17.9775 14.4619 16.483 14.4619C15.0096 14.4619 13.795 15.6659 13.7814 17.1379C13.7679 18.6369 14.981 19.8665 16.4815 19.874C17.9474 19.8816 19.1756 18.664 19.1831 17.1981ZM46.2214 17.2041C46.2319 15.6975 45.0218 14.4649 43.5273 14.4619C42.0539 14.4589 40.8348 15.6599 40.8182 17.1318C40.8017 18.6309 42.0117 19.8635 43.5123 19.874C44.9782 19.8846 46.2093 18.6715 46.2199 17.2041H46.2214ZM19.1816 33.43C19.1786 31.925 17.9565 30.7059 16.4604 30.7164C14.99 30.727 13.7845 31.94 13.7814 33.415C13.7784 34.9125 15.002 36.1331 16.5041 36.1286C17.9685 36.1256 19.1861 34.899 19.1831 33.43H19.1816ZM43.5318 30.7164C42.0584 30.7104 40.8363 31.9099 40.8182 33.3804C40.7987 34.8794 42.0072 36.1151 43.5062 36.1286C44.9722 36.1422 46.2063 34.9306 46.2199 33.4647C46.2334 31.9581 45.0248 30.7225 43.5318 30.7164Z" fill="black"/>
<path d="M5.66649 30.6654C5.69057 29.6811 6.51233 28.8924 7.49814 28.9075C8.49749 28.9241 9.30571 29.7819 9.26657 30.7858C9.22744 31.7641 8.38612 32.5467 7.40783 32.5166C6.43256 32.485 5.64391 31.6467 5.66649 30.6654Z" fill="#E92B09"/>
<path d="M54.3329 30.7226C54.3269 31.7039 53.5142 32.5151 52.5359 32.5166C51.535 32.5181 50.7117 31.6753 50.7328 30.6714C50.7539 29.6871 51.5726 28.8954 52.5569 28.9075C53.5352 28.9195 54.3389 29.7413 54.3329 30.7226Z" fill="#E92B09"/>
<path d="M9.2665 14.4696C9.26048 15.4509 8.44624 16.2606 7.46796 16.2621C6.4671 16.2621 5.64534 15.4193 5.66641 14.4154C5.68748 13.4311 6.50774 12.6395 7.49204 12.653C8.47032 12.6665 9.27252 13.4883 9.2665 14.4696Z" fill="#E92B09"/>
<path d="M54.3323 14.459C54.3323 15.4403 53.5226 16.2545 52.5428 16.2605C51.5419 16.2666 50.7142 15.4282 50.7307 14.4244C50.7473 13.4401 51.5615 12.6439 52.5473 12.6514C53.5256 12.6589 54.3338 13.4762 54.3323 14.4575V14.459Z" fill="#E92B09"/>
<path d="M30.0237 7.23183C29.0454 7.24387 28.2176 6.44167 28.1996 5.46489C28.18 4.455 28.9972 3.6212 30.0026 3.62421C30.9824 3.62572 31.7951 4.43694 31.7997 5.41824C31.8042 6.39953 31.002 7.21979 30.0237 7.23333V7.23183Z" fill="black"/>
</g>
<defs>
<clipPath id="clip0_5158_13996">
<rect width="55.8796" height="56" fill="white" transform="translate(2.06055)"/>
</clipPath>
</defs>
</svg>
