<?xml version="1.0" encoding="utf-8"?>
<!-- Generator: Adobe Illustrator 26.4.1, SVG Export Plug-In . SVG Version: 6.00 Build 0)  -->
<svg version="1.1" id="Capa_1" xmlns="http://www.w3.org/2000/svg" xmlns:xlink="http://www.w3.org/1999/xlink" x="0px" y="0px"
	 viewBox="0 0 60 61" style="enable-background:new 0 0 60 61;" xml:space="preserve">
<style type="text/css">
	.st0{fill:#DA291C;}
</style>
<g>
	<path d="M31.52,0.51c1.3,0.23,2.62,0.39,3.9,0.7c8.28,1.99,14.9,9.19,16.25,17.6c0.92,5.72-0.19,11.01-3.37,15.86
		c-0.04,0.07-0.08,0.13-0.14,0.24c0.21,0.24,0.44,0.47,0.65,0.72c1.32,1.55,2.02,3.35,2.17,5.38c0.31,3.99,0.62,7.98,0.99,11.96
		c0.32,3.48-1.97,6.65-5.4,7.37c-3.4,0.71-6.83-1.31-7.84-4.66c-0.38-1.27-0.66-2.57-0.99-3.85c-0.05-0.19-0.1-0.37-0.16-0.59
		c-1,0.29-1.98,0.35-2.96,0.05c-1.71-0.53-2.85-1.65-3.4-3.35c-0.1-0.31-0.22-0.48-0.56-0.43c-0.04,0.01-0.08,0-0.12,0
		c-1.02-0.14-1.67,0.01-2.15,1.21c-0.91,2.27-3.33,3.17-6.02,2.53c-0.19,0.77-0.38,1.53-0.57,2.3c-0.16,0.64-0.3,1.29-0.48,1.93
		c-0.98,3.48-4.33,5.55-7.86,4.88c-3.45-0.66-5.76-3.89-5.44-7.45c0.37-4.04,0.66-8.09,1-12.14C9.2,38.7,10,36.9,11.41,35.37
		c0.13-0.14,0.27-0.28,0.37-0.39c-0.65-1.23-1.35-2.39-1.9-3.63C4.35,18.9,11.56,4.3,24.8,1.14c1.21-0.29,2.45-0.43,3.68-0.63
		C29.49,0.51,30.51,0.51,31.52,0.51z M45.2,58.5c2.83,0,5.03-2.46,4.78-5.29c-0.28-3.15-0.51-6.3-0.78-9.45
		c-0.11-1.28-0.15-2.58-0.41-3.84c-0.69-3.24-3.52-5.42-6.93-5.43c-5.31-0.01-10.62,0-15.93,0c-2.64,0-5.27-0.02-7.91,0.01
		c-3.68,0.04-6.66,2.75-6.98,6.35c-0.34,3.83-0.65,7.66-0.94,11.49c-0.06,0.81-0.11,1.66,0.05,2.44c0.45,2.18,2.39,3.68,4.59,3.71
		c2.19,0.03,4.1-1.44,4.69-3.62c0.37-1.37,0.67-2.76,1.05-4.14c0.31-1.14,1.34-1.77,2.44-1.42c1.87,0.61,3.71-0.53,4.07-2.33
		c0.19-0.93,0.97-1.46,1.93-1.48c0.62-0.01,1.25,0,1.87,0c1.31,0,1.92,0.46,2.29,1.72c0.51,1.72,2.04,2.59,3.78,2.15
		c1.43-0.37,2.38,0.21,2.74,1.66c0.34,1.36,0.65,2.73,1.04,4.08C41.24,57.14,43.11,58.5,45.2,58.5z M10.08,24.52
		c1.76,0,3.4-0.02,5.04,0c2.1,0.03,3.92,1.37,4.61,3.37c0.07,0.2,0.14,0.4,0.21,0.62c1.15-0.06,2.25-0.03,3.14,0.83
		c0.9,0.87,0.96,1.99,0.94,3.12c0.7,0,1.33,0,1.96,0c0.23-2.25,1.69-3.8,3.67-3.94c0.97-0.07,1.86,0.16,2.65,0.73
		c1.1,0.79,1.62,1.9,1.71,3.21c0.68,0,1.31,0,1.97,0c0-0.34-0.01-0.63,0-0.92c0.02-0.72,0.22-1.4,0.72-1.93
		c0.46-0.48,0.35-1.01,0.17-1.52c-0.18-0.49-0.64-0.57-1.11-0.59c-0.62-0.02-1.26,0.01-1.87-0.11c-3.15-0.6-5.15-3.34-4.85-6.58
		c0.27-2.94,2.86-5.26,5.95-5.3c1.27-0.02,2.54,0,3.81,0c0.74,0,1.18-0.38,1.18-1c0-0.63-0.42-0.99-1.19-0.99c-1.39,0-2.77,0-4.16,0
		c-2.93-0.01-4.5-2.62-3.11-5.21c0.84-1.56,1.7-3.12,2.54-4.67c0.1-0.18,0.19-0.37,0.3-0.61c-1.68-0.38-3.31-0.56-4.97-0.5
		C29.07,2.53,28.98,2.68,28.98,3c0.02,0.64,0.03,1.29,0,1.93c-0.07,1.35-0.75,2.27-2.01,2.74c-0.64,0.24-1.29,0.45-1.94,0.66
		c-2.09,0.66-3.99-0.71-4.04-2.91c0-0.22,0-0.44,0-0.74C19.02,5.7,17.35,6.9,15.77,8.5c1.04,0,1.94-0.02,2.82,0.01
		c1.37,0.05,2.46,0.64,3.08,1.89c0.61,1.23,0.38,2.38-0.45,3.45c-0.38,0.49-0.7,1.04-1.12,1.5c-0.85,0.93-1.19,1.96-1.13,3.24
		c0.07,1.61-1.27,2.88-2.89,2.91c-0.94,0.02-1.87,0.01-2.81,0.01c-1.05,0-2.1,0-3.18,0C10.08,22.52,10.08,23.48,10.08,24.52z
		 M36.38,3.58c-1.1,2.02-2.19,3.98-3.23,5.97c-0.49,0.94,0.17,1.94,1.26,1.96c1.11,0.03,2.22,0,3.34,0.01c0.6,0,1.22-0.05,1.81,0.06
		c1.55,0.27,2.54,1.65,2.41,3.24c-0.12,1.48-1.38,2.66-2.9,2.68c-1.4,0.03-2.81-0.02-4.22,0.02c-1.96,0.05-3.61,1.59-3.8,3.48
		c-0.21,2.08,0.99,3.89,2.98,4.36c0.58,0.14,1.2,0.12,1.8,0.13c0.92,0.02,1.79,0.24,2.35,0.98c0.43,0.57,0.68,1.28,1.08,2.05
		c1.26,0,2.72-0.02,4.18,0.01c0.34,0.01,0.48-0.09,0.62-0.37c0.7-1.42,1.41-2.83,2.11-4.24c0.06-0.11,0.09-0.24,0.14-0.4
		c-0.2-0.02-0.35-0.03-0.5-0.04c-2.08-0.14-3.4-2.27-2.55-4.16c0.55-1.22,1.55-1.88,2.88-1.8c1.03,0.07,1.73-0.26,2.21-1.15
		c0.03-0.05,0.06-0.1,0.1-0.14c0.31-0.29,0.32-0.6,0.16-1c-0.91-2.25-2.15-4.29-3.77-6.08C42.52,6.58,39.72,4.73,36.38,3.58z
		 M10.21,19.49c2.06,0,3.98,0.02,5.91-0.01c0.53-0.01,0.83-0.4,0.87-0.93c0.02-0.31,0.02-0.62,0-0.94c-0.06-0.98,0.25-1.83,0.86-2.6
		c0.64-0.81,1.25-1.65,1.85-2.49c0.57-0.8,0.23-1.7-0.72-1.94c-0.24-0.06-0.5-0.07-0.75-0.08c-1.21-0.01-2.42,0.02-3.63-0.01
		c-0.43-0.01-0.67,0.15-0.9,0.48c-1.23,1.77-2.2,3.68-2.8,5.75C10.64,17.61,10.45,18.52,10.21,19.49z M47.79,31.64
		c2.12-4.22,2.72-8.66,1.71-13.49c-0.91,1.26-2.11,1.44-3.4,1.35c-0.06,0-0.12,0-0.18,0.01c-0.54,0.07-0.94,0.52-0.92,1.03
		c0.02,0.53,0.41,0.91,0.99,0.95c0.14,0.01,0.27,0,0.41,0c1.8,0.01,2.58,1.26,1.78,2.86c-0.81,1.64-1.63,3.27-2.4,4.8
		C46.47,30.01,47.11,30.8,47.79,31.64z M17.8,28.47c-0.46-1.13-1.25-1.84-2.37-1.91c-1.65-0.11-3.3-0.03-5-0.03
		c0.37,1.83,0.96,3.53,1.83,5.18C14.09,29,14.58,28.71,17.8,28.47z M22.01,32.47c0-0.36,0.02-0.67,0-0.98
		c-0.05-0.6-0.42-0.98-1.02-0.99c-1.4-0.02-2.81-0.05-4.21,0.01c-1.53,0.06-2.83,1.48-2.66,2.88C16.6,32.09,19.3,32.62,22.01,32.47z
		 M37.99,32.5c1.38,0,2.7,0,4.02,0c1.36,0,2.64,0.34,3.9,0.88c0.09-1.49-1.23-2.83-2.82-2.86c-1.31-0.03-2.61-0.01-3.92-0.01
		c-0.81,0-1.16,0.37-1.18,1.19C37.98,31.93,37.99,32.16,37.99,32.5z M26.97,2.68c-1.3,0.36-2.51,0.69-3.72,1.04
		C23.14,3.75,23.01,3.96,23,4.1c-0.03,0.47-0.04,0.94,0,1.4c0.05,0.73,0.61,1.14,1.3,0.95c0.69-0.19,1.39-0.4,2.04-0.7
		c0.27-0.12,0.57-0.48,0.6-0.77C27.03,4.27,26.97,3.55,26.97,2.68z M31.95,32.5c0.01-1.14-0.86-2-1.96-1.99
		c-1.1,0-1.97,0.88-1.94,1.99c1.13,0,2.25,0,3.38,0C31.61,32.5,31.78,32.5,31.95,32.5z"/>
	<path class="st0" d="M39.98,44.54c-0.03,1.68-1.37,2.98-3.06,2.95c-1.62-0.03-2.96-1.41-2.93-3.03c0.03-1.66,1.39-2.97,3.07-2.95
		C38.7,41.53,40.01,42.89,39.98,44.54z M37.98,44.49c0-0.56-0.45-1-1.01-0.99c-0.52,0.01-0.97,0.45-0.98,0.97
		c-0.01,0.54,0.45,1.02,0.99,1.02C37.54,45.5,37.98,45.06,37.98,44.49z"/>
	<path class="st0" d="M23.06,41.51c1.62,0.02,2.97,1.39,2.95,3.01c-0.03,1.67-1.39,2.99-3.06,2.97c-1.64-0.02-2.94-1.36-2.93-3.02
		C20.03,42.8,21.37,41.49,23.06,41.51z M22.99,45.5c0.54,0,1.01-0.46,1.01-1c0-0.54-0.47-1-1.02-0.99
		c-0.54,0.01-0.95,0.43-0.97,0.97C22.01,45.04,22.44,45.49,22.99,45.5z"/>
	<path class="st0" d="M45.03,41.52c-0.11,1.55-0.34,2.02-1.02,1.96c-1.26-0.11-0.95-1.14-1.03-1.95c-0.8-0.11-1.93,0.23-1.94-1.03
		c-0.01-1.28,1.14-0.92,1.93-1.02c0.12-0.8-0.26-1.98,1.07-1.94c1.24,0.04,0.87,1.15,0.99,1.92c0.78,0.13,1.97-0.26,1.93,1.07
		C46.92,41.75,45.83,41.45,45.03,41.52z"/>
	<path class="st0" d="M17.02,41.5c-0.08,0.85,0.23,1.89-1.04,1.98c-0.67,0.05-0.89-0.39-1.02-1.98c-0.28,0-0.56,0.01-0.84,0
		c-0.68-0.02-1.12-0.43-1.11-1.03c0.01-0.58,0.43-0.95,1.09-0.97c0.27-0.01,0.54,0,0.9,0c0-0.32-0.01-0.6,0-0.89
		c0.02-0.7,0.4-1.11,1.01-1.11c0.59,0.01,0.96,0.41,0.98,1.08c0.01,0.27,0,0.55,0,0.91c0.35,0,0.67-0.01,1,0
		c0.59,0.03,0.97,0.4,1,0.94c0.02,0.56-0.37,0.99-0.96,1.04C17.72,41.52,17.4,41.5,17.02,41.5z"/>
	<path class="st0" d="M26.49,38.49c-0.49,0-0.98,0.01-1.46,0c-0.6-0.02-0.98-0.38-1.01-0.92c-0.03-0.56,0.35-1.03,0.94-1.05
		c1.03-0.03,2.07-0.03,3.1,0c0.57,0.02,0.93,0.47,0.92,1.01c-0.01,0.54-0.39,0.92-0.97,0.96c-0.04,0-0.08,0-0.12,0
		C27.42,38.49,26.96,38.49,26.49,38.49C26.49,38.49,26.49,38.49,26.49,38.49z"/>
	<path class="st0" d="M33.49,38.49c-0.49,0-0.98,0.01-1.46,0c-0.62-0.02-1.01-0.41-1.01-0.98c0-0.56,0.39-0.98,1-1
		c0.99-0.03,1.99-0.03,2.98,0c0.6,0.02,0.99,0.46,0.98,1.02c-0.01,0.57-0.4,0.94-1.03,0.96C34.47,38.5,33.98,38.49,33.49,38.49z"/>
</g>
</svg>
