<svg width="61" height="61" viewBox="0 0 61 61" fill="none" xmlns="http://www.w3.org/2000/svg">
<g clip-path="url(#clip0_5158_13972)">
<path d="M28.4168 1C27.412 1.14651 26.3982 1.24771 25.404 1.44406C17.9517 2.92125 12.2773 6.95859 8.36418 13.4443C5.96883 17.4137 4.88842 21.7682 4.87632 26.3946C4.87178 27.8295 4.86723 29.2644 4.88237 30.6993C4.88539 31.0316 4.80822 31.1796 4.44658 31.2687C2.39169 31.7747 1.02982 33.5163 1.01015 35.6354C0.996532 37.2213 0.996532 38.8072 1.01015 40.3932C1.02982 42.5198 2.37049 44.2342 4.44355 44.7598C4.80368 44.8504 4.93987 44.9924 5.02612 45.3655C5.62836 48.0072 7.93444 49.6732 10.6672 49.4859C13.1625 49.3152 15.231 47.2339 15.4201 44.6133C15.5079 43.3929 15.4625 42.1604 15.464 40.9339C15.4685 38.046 15.467 35.1566 15.464 32.2686C15.4625 29.0938 13.8358 27.1393 10.7202 26.5593C10.6672 26.5487 10.6173 26.517 10.466 26.4535C10.6899 19.4135 13.5392 13.6981 19.4875 9.84953C26.2999 5.44214 33.4163 5.38474 40.2846 9.69698C46.3812 13.5229 49.3228 19.2911 49.5468 26.4943C49.1548 26.5744 48.8598 26.6242 48.5708 26.6967C46.2783 27.2782 44.6289 29.2448 44.6047 31.6116C44.5608 35.877 44.5548 40.1455 44.6047 44.4109C44.6365 47.0722 46.7625 49.2865 49.3304 49.4859C52.0889 49.7004 54.4646 47.9498 55.0441 45.296C55.0819 45.1208 55.2469 44.8776 55.3982 44.8368C57.3124 44.3278 58.5032 43.1361 58.933 41.1952C58.9405 41.162 58.9753 41.1348 58.998 41.1061C58.998 39.067 58.998 37.028 58.998 34.9889C58.9466 34.8122 58.8982 34.634 58.8437 34.4572C58.3428 32.8109 57.267 31.7279 55.607 31.2869C55.1939 31.1766 55.1198 31.012 55.1243 30.6389C55.1425 29.2418 55.1289 27.8461 55.1319 26.449C55.144 21.4948 53.8548 16.9122 51.2128 12.7163C50.0703 10.9023 48.7039 9.27255 47.1469 7.7999C46.8321 7.50083 46.4523 7.29391 46.0952 7.60505C45.8607 7.80896 45.6957 8.18052 45.6624 8.49469C45.6428 8.68953 45.897 8.94781 46.0801 9.12453C49.7813 12.6906 52.1192 16.9908 53.0528 22.0477C53.4023 23.9402 53.4765 25.8509 53.4144 27.7706C52.6715 27.3749 51.9633 26.9973 51.2355 26.6091C51.5653 15.4124 42.111 4.97089 30.0873 4.92406C17.8548 4.87573 8.41261 15.503 8.76971 26.6136C8.0328 27.0094 7.31858 27.393 6.5968 27.7812C6.4364 23.7333 7.01141 19.8289 8.83024 16.2144C13.0868 7.75609 19.9687 3.18557 29.4488 2.72943C33.8264 2.51797 37.9241 3.67193 41.7236 5.85901C42.3637 6.22755 42.8056 6.15505 43.0885 5.65813C43.3669 5.16875 43.199 4.75792 42.5619 4.38635C40.0803 2.93786 37.4262 1.94703 34.5981 1.43953C33.6372 1.26583 32.6673 1.145 31.7019 1C30.6079 1 29.5123 1 28.4168 1ZM6.5741 37.9992C6.5741 35.9813 6.56199 33.9618 6.57713 31.9439C6.59225 29.8263 8.1599 28.2147 10.1739 28.2162C12.1653 28.2177 13.742 29.7931 13.7571 31.8926C13.7844 35.9677 13.7677 40.0412 13.7632 44.1164C13.7632 45.1842 13.4121 46.1252 12.6056 46.8442C11.4738 47.8546 10.1618 48.1023 8.76971 47.5103C7.32766 46.897 6.60587 45.7219 6.58167 44.1677C6.54988 42.112 6.5741 40.0548 6.5741 37.9992ZM46.2919 38.0596C46.2919 38.0596 46.2859 38.0596 46.2828 38.0596C46.2828 36.022 46.2828 33.9845 46.2828 31.9469C46.2828 31.9092 46.2828 31.8714 46.2844 31.8336C46.3358 29.778 47.8777 28.2177 49.86 28.2147C51.8574 28.2117 53.4417 29.8172 53.4462 31.885C53.4568 35.9782 53.4568 40.0715 53.4386 44.1647C53.4371 44.6254 53.3463 45.1102 53.1844 45.5422C52.5943 47.11 50.9237 48.0359 49.2744 47.764C47.6235 47.4921 46.3373 46.0844 46.304 44.3973C46.2632 42.2857 46.2934 40.1727 46.2934 38.0596H46.2919ZM55.1743 43.0651V32.971C56.3152 33.1568 57.2594 34.2216 57.2851 35.4435C57.323 37.1579 57.323 38.8737 57.2851 40.588C57.2579 41.8069 56.3364 42.8476 55.1743 43.0651ZM4.84 32.9665V43.0666C3.6809 42.8567 2.74879 41.816 2.72004 40.5941C2.67919 38.8782 2.6807 37.1594 2.72004 35.4435C2.74728 34.2171 3.68242 33.1628 4.84 32.965V32.9665Z" fill="black"/>
<path d="M36.46 59C37.495 58.6405 38.2789 58.0333 38.5437 56.902C38.9114 55.3342 37.7492 53.7437 36.1362 53.6727C35.1814 53.6305 34.2235 53.6652 33.2052 53.6652C33.2052 52.1956 33.1931 50.803 33.2264 49.4134C33.2294 49.288 33.5214 49.1203 33.7076 49.0569C37.4163 47.8048 40.0054 45.367 41.4717 41.7389C42.0588 40.2844 42.2903 38.7619 42.2903 37.2001C42.2903 35.4073 42.2963 33.6129 42.2903 31.82C42.2842 30.3262 41.5095 29.565 40.0099 29.562C39.503 29.562 38.9946 29.562 38.4075 29.562C38.4075 29.3022 38.412 29.0832 38.4075 28.8642C38.3666 27.168 38.4831 25.4491 38.2516 23.7801C37.6963 19.7911 34.0662 16.8337 29.9655 16.8473C25.8996 16.8624 22.3058 19.8364 21.7595 23.8073C21.5371 25.4219 21.646 27.0834 21.6067 28.7222C21.6006 28.9805 21.6067 29.2402 21.6067 29.562C20.9848 29.562 20.4234 29.5574 19.862 29.562C18.5713 29.5756 17.7405 30.3474 17.7299 31.6222C17.7133 33.7171 17.6694 35.8166 17.7662 37.907C18.0008 43.0213 21.4039 47.4423 26.2627 49.0176C26.7137 49.1642 26.8332 49.3605 26.8226 49.8076C26.7923 51.0673 26.812 52.327 26.812 53.6607C25.8284 53.6607 24.9099 53.6425 23.9915 53.6652C22.793 53.6939 21.8185 54.4748 21.5038 55.6166C21.1921 56.748 21.643 57.9457 22.6417 58.5695C22.9247 58.7462 23.247 58.858 23.5526 59H36.4646H36.46ZM21.6021 31.2627C21.6021 31.5512 21.6021 31.7566 21.6021 31.9605C21.6067 33.9044 21.584 35.8498 21.6233 37.7937C21.6566 39.36 22.1681 40.7964 23.0805 42.0652C23.2455 42.2948 23.6374 42.4957 23.9082 42.476C24.1594 42.4579 24.5059 42.1664 24.5907 41.9202C24.6739 41.6755 24.5544 41.2934 24.4015 41.0472C23.7327 39.9627 23.3135 38.8087 23.3105 37.5279C23.303 33.3561 23.2697 29.1844 23.3181 25.0126C23.3589 21.4314 26.3883 18.5465 29.9988 18.545C33.6092 18.5435 36.6476 21.4269 36.69 25.002C36.74 29.1919 36.7309 33.3833 36.69 37.5732C36.6703 39.6364 35.7655 41.3326 34.1433 42.5969C32.2519 44.0725 30.1304 44.4063 27.841 43.6919C27.1479 43.4759 26.7439 43.6466 26.5775 44.213C26.4216 44.7477 26.6425 45.1102 27.3431 45.2945C28.0498 45.4802 28.7731 45.6811 29.4979 45.7189C34.4157 45.9772 38.3666 42.2298 38.4029 37.3044C38.4166 35.5115 38.406 33.7171 38.406 31.9243C38.406 31.7234 38.406 31.521 38.406 31.2612C39.0536 31.2612 39.6377 31.228 40.2127 31.2853C40.3534 31.2989 40.5743 31.604 40.5759 31.7777C40.5864 33.9105 40.6424 36.0477 40.535 38.1744C40.2853 43.1361 35.8442 47.5616 30.8794 47.8909C25.7452 48.2307 21.1315 44.9561 19.8045 39.9733C19.0736 37.2288 19.5246 34.4134 19.4428 31.6297C19.4398 31.5104 19.688 31.2884 19.8317 31.2778C20.3916 31.237 20.9575 31.2612 21.6052 31.2612L21.6021 31.2627ZM30.0018 57.3008C28.0589 57.3008 26.1144 57.3068 24.1715 57.2977C23.5224 57.2947 23.0881 56.8763 23.0987 56.3084C23.1078 55.7571 23.5163 55.381 24.1473 55.3584C24.4681 55.3478 24.7889 55.3553 25.1097 55.3553C28.5249 55.3553 31.9402 55.3553 35.3539 55.3553C35.5234 55.3553 35.6943 55.3508 35.8638 55.3584C36.4948 55.384 36.9019 55.7586 36.9094 56.313C36.917 56.8809 36.4827 57.2962 35.832 57.2977C33.8891 57.3068 31.9447 57.3008 30.0018 57.3008ZM28.5597 53.6229V49.5931H31.465V53.6229H28.5597Z" fill="black"/>
<path d="M28.8852 35.9707C28.8928 36.5975 29.3513 37.0461 29.9672 37.028C30.5573 37.0098 30.9689 36.5643 30.9628 35.948C30.9568 35.3408 30.527 34.8907 29.9445 34.8832C29.3437 34.8741 28.8792 35.3529 28.8852 35.9722V35.9707Z" fill="#E92B09"/>
<path d="M25.5621 38.1805C25.5621 38.8194 26.0085 39.2785 26.6138 39.2619C27.1963 39.2453 27.6215 38.7922 27.623 38.1865C27.6246 37.5506 27.1872 37.1111 26.5623 37.1216C25.957 37.1322 25.5636 37.5506 25.5621 38.1805Z" fill="#E92B09"/>
<path d="M29.9475 39.2724C29.3286 39.2649 28.8792 39.721 28.8868 40.3463C28.8943 40.9414 29.3362 41.4021 29.9112 41.4142C30.5134 41.4263 30.9674 40.955 30.9629 40.3252C30.9583 39.7044 30.5467 39.28 29.9475 39.2739V39.2724Z" fill="#E92B09"/>
</g>
<defs>
<clipPath id="clip0_5158_13972">
<rect width="58" height="58" fill="white" transform="matrix(-1 0 0 1 59 1)"/>
</clipPath>
</defs>
</svg>
