<svg width="60" height="61" viewBox="0 0 60 61" fill="none" xmlns="http://www.w3.org/2000/svg">
<g clip-path="url(#clip0_4886_46074)">
<path d="M52.5182 0.5C53.1901 0.685952 53.8792 0.8219 54.5293 1.06567C57.7201 2.26733 59.8531 5.33319 59.8828 8.74283C59.9016 10.8133 59.8891 12.8838 59.8859 14.9543C59.8859 15.6746 59.5468 16.0918 58.9921 16.0809C58.4561 16.07 58.1358 15.6652 58.1342 14.9777C58.1311 12.9854 58.1358 10.993 58.1327 9.00066C58.1249 5.1738 55.2684 2.26576 51.4572 2.26264C37.1107 2.2517 22.7627 2.25014 8.41628 2.26264C4.63161 2.26576 1.77045 5.15661 1.75951 8.95691C1.74389 14.4839 1.74545 20.0125 1.75951 25.5395C1.76889 29.4038 4.6488 32.2603 8.50379 32.2634C9.47418 32.2634 10.443 32.2634 11.4025 32.2634C11.9228 28.9241 13.8589 27.0021 16.6747 26.9818C19.5593 26.9614 21.4736 28.8178 22.0627 32.2306H24.6472C24.7316 30.543 25.3801 29.1319 26.7208 28.0881C27.7787 27.263 28.9898 26.9036 30.3274 26.9911C32.5385 27.1349 35.0434 28.8522 35.2496 32.2228H37.8342C38.3843 28.8663 40.311 26.9802 43.1628 26.9818C46.0114 26.9818 47.9381 28.8741 48.4929 32.265C50.6587 32.1853 52.8916 32.615 54.9043 31.3415C56.9748 30.032 58.0749 28.1568 58.1264 25.7098C58.1686 23.719 58.1358 21.7251 58.1358 19.7328C58.1358 19.5765 58.1233 19.4187 58.1436 19.264C58.2061 18.7702 58.4983 18.4873 58.9874 18.4467C59.4437 18.4092 59.8797 18.7749 59.8781 19.2687C59.8641 21.8251 59.9953 24.3987 59.7469 26.9333C59.364 30.8555 55.7528 33.9526 51.8103 34.0151C50.7587 34.0307 49.7055 34.0354 48.6522 34.0104C48.2913 34.0026 48.1288 34.1214 47.9475 34.4417C47.5584 35.1261 47.0771 35.7606 46.6302 36.4216C47.0146 36.6544 47.4818 36.8919 47.8991 37.1982C49.8742 38.6483 50.9196 40.6109 51.0884 43.058C51.1134 43.4143 51.2665 43.7628 51.3493 44.1159C51.554 45.0019 51.8103 45.8832 51.9322 46.7802C52.0275 47.4865 51.9509 48.2178 51.9509 49.0288C52.4525 49.0288 52.9104 49.021 53.3698 49.0304C54.4199 49.0538 55.484 48.9882 56.5185 49.1335C58.4186 49.4023 59.8281 51.0743 59.8812 52.9994C59.9125 54.0917 59.8969 55.1871 59.8891 56.2809C59.8734 58.3405 58.6437 59.8968 56.6529 60.3969C56.5607 60.4203 56.4732 60.4656 56.3825 60.5H53.6917C52.7901 60.2297 51.9088 59.9046 51.2993 59.1421C51.0352 58.8124 50.7555 58.7295 50.3555 58.7295C41.7017 58.7405 33.0479 58.7374 24.3941 58.7374C24.1988 58.7374 24.0003 58.7577 23.8112 58.7233C23.3315 58.6374 23.0331 58.3576 23.0409 57.8482C23.0471 57.3435 23.3393 57.0607 23.8269 56.9904C24.0175 56.9638 24.216 56.9794 24.4113 56.9794C32.7729 56.9794 41.1329 56.9794 49.4945 56.9794C49.7195 56.9794 49.9445 56.9794 50.1992 56.9794C50.1992 56.7169 50.1992 56.5419 50.1992 56.3684C50.1992 53.3026 50.2039 50.2367 50.1992 47.1708C50.193 44.0331 48.1272 41.9751 44.9848 41.9751C34.9668 41.972 24.9488 41.9736 14.9309 41.9751C11.7572 41.9751 9.70076 44.0315 9.69607 47.2083C9.69138 50.2554 9.69607 53.301 9.69607 56.3481C9.69607 56.5387 9.69607 56.7278 9.69607 56.981C9.96172 56.981 10.1711 56.981 10.3805 56.981C13.1479 56.981 15.9153 56.981 18.6827 56.981C19.0718 56.981 19.464 56.9607 19.8516 56.9935C20.3516 57.0357 20.6407 57.3529 20.6532 57.8389C20.6657 58.3295 20.375 58.6374 19.8875 58.7233C19.7172 58.753 19.5375 58.7374 19.3625 58.7374C16.0497 58.7374 12.7354 58.7358 9.42261 58.7436C9.22416 58.7436 8.94133 58.7639 8.84132 58.8905C8.15376 59.7578 7.2365 60.2187 6.20361 60.5H3.50965C2.25955 60.189 1.20009 59.5921 0.560981 58.4248C0.331276 58.0107 0.184389 57.5482 0 57.106C0 55.5824 0 54.0589 0 52.5353C0.0390656 52.4259 0.0843816 52.3197 0.115634 52.2072C0.595359 50.4383 1.90327 49.2694 3.70342 49.0663C4.30034 48.9991 4.90976 49.0366 5.51449 49.035C6.30518 49.0304 7.09743 49.035 7.93812 49.035C7.93812 48.6069 7.9475 48.26 7.93656 47.9115C7.89437 46.5739 7.97719 45.2613 8.57411 44.0237C8.70381 43.7534 8.78038 43.4377 8.80225 43.1377C9.01164 40.1453 10.4118 37.9389 13.0823 36.5575C13.176 36.5091 13.2573 36.4403 13.2651 36.4356C12.7963 35.7356 12.3166 35.0996 11.9322 34.4105C11.7572 34.0964 11.5853 34.012 11.2618 34.0167C10.268 34.0323 9.27416 34.0276 8.28034 34.0214C4.741 34.0011 1.60013 31.7431 0.462536 28.3803C0.270334 27.8115 0.153137 27.2162 0.00156262 26.6333C0 20.3844 0 14.1339 0 7.88339C0.0359403 7.77401 0.0843816 7.66618 0.104696 7.55368C0.629737 4.61595 2.23924 2.49391 4.93476 1.2485C5.69888 0.895343 6.5552 0.743769 7.36933 0.5C22.4189 0.5 37.4686 0.5 52.5197 0.5H52.5182ZM7.93656 50.7961C6.54895 50.7961 5.26135 50.757 3.97844 50.8071C2.73928 50.8555 1.7892 51.8649 1.76108 53.101C1.73607 54.2136 1.73607 55.3277 1.76108 56.4403C1.7892 57.706 2.77522 58.6905 4.03313 58.7405C4.50035 58.7592 4.96914 58.7499 5.43636 58.7452C6.93023 58.7311 7.91781 57.7482 7.93187 56.2387C7.94593 54.8324 7.935 53.426 7.935 52.0212C7.935 51.6352 7.935 51.2493 7.935 50.7961H7.93656ZM51.9947 50.8289C51.9947 52.8244 51.9181 54.7949 52.0228 56.7544C52.0869 57.9404 53.126 58.717 54.3246 58.7436C54.8121 58.7546 55.2996 58.7561 55.7856 58.7436C57.1076 58.7077 58.103 57.717 58.1264 56.3903C58.1452 55.3168 58.1436 54.2417 58.1264 53.1682C58.1077 51.9696 57.3217 50.9508 56.1435 50.8555C54.7746 50.7461 53.3917 50.8305 51.9916 50.8305L51.9947 50.8289ZM46.6755 32.265C46.6755 30.3055 45.0988 28.735 43.1409 28.7413C41.2095 28.7475 39.6515 30.3039 39.6422 32.24C39.6328 34.212 41.1845 35.784 43.144 35.7903C45.1051 35.7965 46.6771 34.2276 46.6755 32.2665V32.265ZM16.7138 35.7887C18.6796 35.7949 20.2469 34.2354 20.2485 32.2697C20.2485 30.3305 18.7046 28.7569 16.781 28.7397C14.8168 28.7225 13.226 30.2789 13.2151 32.2322C13.2042 34.2011 14.7605 35.7824 16.7154 35.7887H16.7138ZM33.462 32.2869C33.4698 30.3211 31.9072 28.7428 29.9508 28.7413C28.0163 28.7397 26.4458 30.2883 26.4286 32.2165C26.4114 34.1901 27.9553 35.7762 29.9086 35.7903C31.8744 35.8043 33.4542 34.2464 33.462 32.2884V32.2869ZM48.8913 41.2766C48.1038 39.0389 45.9223 37.5826 43.4581 37.5482C40.9501 37.5138 38.6515 38.628 38.0389 40.2187H38.6233C40.5532 40.2187 42.483 40.2469 44.4129 40.2094C45.9614 40.1797 47.4443 40.3578 48.8898 41.2751L48.8913 41.2766ZM21.883 40.2203C20.9251 38.2576 18.2858 37.2435 15.4246 37.6357C13.5401 37.8951 11.4462 39.5343 11.0837 41.1922C12.8901 40.314 13.301 40.2203 15.3403 40.2203C17.4998 40.2203 19.6578 40.2203 21.883 40.2203ZM35.0668 40.1875C34.2886 38.4592 31.8072 37.3466 29.2226 37.5654C27.3459 37.7248 25.8661 38.5717 24.7176 40.1875H35.0668ZM26.4521 36.4247C25.9817 35.6949 25.5207 34.9621 25.0348 34.2464C24.9566 34.1323 24.7676 34.0339 24.6285 34.0307C23.7737 34.0104 22.9174 34.0136 22.0611 34.0276C21.9252 34.0292 21.7314 34.0823 21.6658 34.1808C21.1657 34.9308 20.6907 35.6981 20.2891 36.3325C21.3048 37.1685 22.3705 38.0451 23.2628 38.7811C23.7144 38.4092 24.2222 37.9514 24.7691 37.5466C25.3301 37.1325 25.927 36.77 26.4505 36.4231L26.4521 36.4247ZM33.5011 36.3294C34.523 37.1716 35.5872 38.0482 36.5435 38.8374C37.5483 38.0186 38.6155 37.1482 39.6078 36.3387C39.1906 35.6903 38.7312 34.9558 38.2467 34.2401C38.1702 34.1261 37.9764 34.0354 37.8342 34.0323C36.9795 34.0136 36.1231 34.0136 35.2668 34.0323C35.1262 34.0354 34.9355 34.1292 34.8574 34.2433C34.3714 34.9589 33.912 35.6934 33.5026 36.3294H33.5011Z" fill="black"/>
<path d="M24.6861 17.2435C24.6861 16.4044 24.672 15.5653 24.6892 14.7262C24.7158 13.3667 25.3049 12.3103 26.5081 11.6712C27.7098 11.0337 28.9192 11.1181 30.0474 11.8806C31.2897 12.7213 32.5242 13.5745 33.7321 14.4636C35.6916 15.9044 35.7026 18.5937 33.7462 20.05C32.5273 20.9563 31.2741 21.8173 30.0131 22.6643C28.902 23.4112 27.7066 23.4831 26.5253 22.8643C25.3189 22.233 24.722 21.1798 24.6908 19.8203C24.672 18.9624 24.6876 18.103 24.6876 17.2435H24.6861ZM26.4393 17.3186C26.4393 18.1171 26.444 18.9171 26.4393 19.7156C26.4347 20.4188 26.7003 20.9767 27.3269 21.3079C27.952 21.6392 28.5645 21.5533 29.1396 21.1485C30.3021 20.3328 31.4741 19.5312 32.6258 18.7015C33.729 17.9077 33.7305 16.6247 32.6305 15.8325C31.4788 15.0027 30.3053 14.2011 29.1442 13.3839C28.5708 12.9807 27.9629 12.8838 27.3347 13.2167C26.7081 13.5479 26.4362 14.1011 26.4393 14.8043C26.444 15.6419 26.4393 16.481 26.4393 17.3186Z" fill="#E92B09"/>
<path d="M37.9342 4.02679C39.2234 4.03773 40.3219 5.06594 40.4203 6.35822C40.4625 6.90202 40.175 7.32236 39.7047 7.40518C39.2062 7.49425 38.8046 7.19266 38.6952 6.60356C38.6124 6.15352 38.4202 5.80193 37.9295 5.7988C37.4467 5.79568 37.231 6.10664 37.1576 6.58168C37.0669 7.17547 36.6591 7.48175 36.1575 7.40831C35.6809 7.33799 35.4074 6.95515 35.4262 6.38166C35.4653 5.09563 36.6169 4.01429 37.9326 4.02523L37.9342 4.02679Z" fill="black"/>
<path d="M30.0067 8.37245C28.9285 8.36932 28.0753 8.00055 27.3784 7.27861C26.9518 6.83639 26.9237 6.36135 27.28 5.98008C27.6316 5.60661 28.1285 5.61598 28.5801 6.00508C29.5583 6.85046 30.3224 6.84733 31.3193 5.99414C31.7506 5.6238 32.221 5.60817 32.5773 5.95039C32.9538 6.31448 32.9492 6.81295 32.5398 7.24892C31.835 7.99586 30.9646 8.37089 30.0083 8.37245H30.0067Z" fill="black"/>
<path d="M21.3847 5.83326C21.3847 5.58011 21.3644 5.32541 21.3894 5.07539C21.4363 4.59566 21.741 4.3347 22.1973 4.3097C22.627 4.2847 23.0083 4.49878 23.0521 4.93788C23.1161 5.56918 23.1177 6.21923 23.0427 6.8474C22.9911 7.28181 22.6067 7.47401 22.1676 7.43963C21.7254 7.40526 21.4457 7.15211 21.3957 6.70833C21.3629 6.4208 21.3894 6.12547 21.3894 5.83326C21.3894 5.83326 21.3879 5.83326 21.3863 5.83326H21.3847Z" fill="black"/>
</g>
<defs>
<clipPath id="clip0_4886_46074">
<rect width="60" height="60" fill="white" transform="translate(0 0.5)"/>
</clipPath>
</defs>
</svg>
