<svg width="200" height="200" viewBox="0 0 200 200" fill="none" xmlns="http://www.w3.org/2000/svg">
<path d="M130.809 180H69.703C63.0908 180 57.7326 174.478 57.7326 167.664V156.855V135.238V51.8242C57.7326 45.0101 63.0908 39.4883 69.703 39.4883H130.809C137.421 39.4883 142.779 45.0101 142.779 51.8242V167.664C142.779 174.478 137.421 180 130.809 180ZM62.9768 162.26V167.664C62.9768 171.541 66.0548 174.596 69.703 174.596H130.809C134.571 174.596 137.535 171.541 137.535 167.664V51.8242C137.535 47.9472 134.571 44.8926 130.809 44.8926H69.703C65.9409 44.8926 62.9768 48.0647 62.9768 51.8242V129.834V162.26Z" fill="#424242"/>
<path d="M94.7093 168.907H105.802" stroke="#424242" stroke-width="3.06907"/>
<path fill-rule="evenodd" clip-rule="evenodd" d="M102.105 52.4309C102.105 53.4516 101.277 54.279 100.255 54.279C99.2343 54.279 98.407 53.4516 98.407 52.4309C98.407 51.4086 99.2343 50.5813 100.255 50.5813C101.277 50.5813 102.105 51.4086 102.105 52.4309Z" fill="#424242"/>
<path fill-rule="evenodd" clip-rule="evenodd" d="M68.8256 161.511L131.686 161.439V57.9766H68.8256V161.511Z" fill="#FF7900"/>
<path fill-rule="evenodd" clip-rule="evenodd" d="M100.256 90.8379C89.8316 90.8379 81.3498 99.3194 81.3498 109.743C81.3498 120.169 89.8316 128.65 100.256 128.65C110.68 128.65 119.162 120.169 119.162 109.743C119.162 99.3194 110.68 90.8379 100.256 90.8379ZM100.256 133.779C87.0021 133.779 76.2209 122.997 76.2209 109.743C76.2209 96.4916 87.0021 85.7092 100.256 85.7092C113.51 85.7092 124.291 96.4916 124.291 109.743C124.291 122.997 113.51 133.779 100.256 133.779Z" fill="white"/>
<path fill-rule="evenodd" clip-rule="evenodd" d="M99.5631 118.988L87.314 106.048L91.1892 102.863L99.8215 111.985L124.358 89.4067L127.988 92.8307L99.5631 118.988Z" fill="white"/>
<path d="M161.996 38.8277L159.493 34.3188L150.838 39.4218L153.341 43.9306L161.996 38.8277Z" fill="#FF7900"/>
<path d="M151.018 24.1788L147.032 21L140.93 29.1274L144.917 32.3063L151.018 24.1788Z" fill="#FF7900"/>
<path d="M166.174 51.5198L156.284 52.8239L156.923 57.9765L166.814 56.6724L166.174 51.5198Z" fill="#FF7900"/>
</svg>
