<svg width="60" height="61" viewBox="0 0 60 61" fill="none" xmlns="http://www.w3.org/2000/svg">
<g clip-path="url(#clip0_4886_46063)">
<path d="M0 37.7666C0 30.9695 0 24.1725 0 17.3754C0.85471 15.2363 1.64067 14.7097 3.97354 14.7097C11.5331 14.7097 19.0911 14.7097 26.6507 14.7097H27.4382C27.4382 14.3925 27.4382 14.1613 27.4382 13.93C27.4382 10.5925 27.4429 7.25486 27.4367 3.91571C27.4335 2.5188 28.007 1.4719 29.2586 0.828134C29.5148 0.69688 29.7914 0.607815 30.0586 0.5C36.14 0.5 42.223 0.5 48.3044 0.5C48.4544 0.69688 48.6638 0.871885 48.7419 1.0922C48.9685 1.74691 48.5138 2.2563 47.7216 2.2563C42.1683 2.25942 36.615 2.2563 31.0617 2.25786C29.6852 2.25786 29.193 2.74537 29.193 4.12353C29.1898 7.44237 29.193 10.7612 29.193 14.08C29.193 14.2707 29.193 14.4613 29.193 14.6363C29.3101 14.6769 29.3617 14.7035 29.418 14.7144C31.5618 15.141 32.4446 16.2113 32.4477 18.3958C32.4493 20.1911 32.4477 21.9881 32.4493 23.7834C32.4493 23.9881 32.4712 24.1928 32.4837 24.4366C32.7805 24.4366 33.0134 24.4366 33.2446 24.4366C38.4463 24.4366 43.6496 24.4475 48.8513 24.4241C49.5669 24.4209 50.1138 24.5959 50.6013 25.1413C51.3607 25.9897 52.1842 26.7788 52.9811 27.5929C53.1201 26.8601 53.1139 26.2038 53.1233 25.5475C53.1342 24.7663 53.4451 24.4522 54.2327 24.4397C54.9733 24.4272 55.714 24.4412 56.4546 24.435C57.5843 24.4256 58.1312 23.8756 58.1312 22.7365C58.1343 16.4895 58.1328 10.2424 58.1312 3.9954C58.1312 2.82819 57.5749 2.26411 56.4234 2.25942C55.3718 2.25473 54.3186 2.25317 53.267 2.25942C52.8217 2.26255 52.3795 2.2563 52.1889 1.76097C51.9842 1.22971 52.2045 0.820321 52.6342 0.5C54.192 0.5 55.7515 0.5 57.3109 0.5C57.3546 0.534376 57.3953 0.582815 57.4453 0.600003C59.125 1.17502 59.8844 2.23286 59.8844 4.01884C59.8844 10.2471 59.8859 16.4754 59.8844 22.7037C59.8844 24.8584 58.5734 26.1835 56.4437 26.1944C55.9421 26.196 55.4405 26.1944 54.8749 26.1944C54.8749 27.3523 54.8671 28.4398 54.878 29.5273C54.8827 29.982 54.8327 30.393 54.3577 30.6023C53.8577 30.8227 53.5108 30.5711 53.1733 30.2305C51.981 29.0226 50.7716 27.8335 49.5857 26.6179C49.2919 26.3179 48.9982 26.1819 48.5669 26.1835C43.423 26.1991 38.2776 26.1929 33.1337 26.1929C32.9274 26.1929 32.7196 26.1929 32.4805 26.1929V30.2945C32.7415 30.2945 32.9696 30.2945 33.1977 30.2945C37.6604 30.2945 42.123 30.2883 46.5856 30.2976C48.731 30.3023 50.0638 31.6367 50.0654 33.7634C50.0685 40.051 50.0701 46.3371 50.0654 52.6248C50.0654 54.6436 48.7075 55.9983 46.6918 56.0171C46.1715 56.0218 45.6496 56.0171 45.0606 56.0171C45.0606 57.153 45.0387 58.2218 45.0699 59.2906C45.0856 59.8344 44.9293 60.2391 44.4449 60.5H43.8605C42.5199 59.1687 41.1683 57.8499 39.8479 56.4999C39.5073 56.1515 39.1729 56.0046 38.6807 56.0061C32.8524 56.0233 27.0241 56.0186 21.1959 56.0171C18.938 56.0171 17.6333 54.7186 17.6301 52.4654C17.627 48.6966 17.6301 44.9262 17.6301 41.1573C17.6301 40.9307 17.6301 40.7042 17.6301 40.4807C17.4676 40.4557 17.3911 40.4354 17.3161 40.4354C15.2301 40.4323 13.1441 40.4229 11.0597 40.4464C10.8425 40.4479 10.58 40.5901 10.4175 40.7495C9.1768 41.9651 7.9549 43.198 6.73143 44.4308C6.40173 44.7637 6.07203 45.0512 5.5564 44.8324C5.04857 44.6168 5.00326 44.1902 5.00794 43.7152C5.02044 42.6464 5.01107 41.5761 5.01107 40.4323C4.41105 40.4323 3.87198 40.4354 3.3329 40.4323C2.37194 40.426 1.49535 40.1417 0.889086 39.3869C0.507826 38.9151 0.290633 38.3104 0 37.7666ZM43.1558 57.4062C43.2058 57.378 43.2574 57.3499 43.3074 57.3218C43.3074 56.6468 43.2949 55.9718 43.3105 55.2983C43.3277 54.5717 43.6293 54.2764 44.3574 54.2639C45.0387 54.253 45.7215 54.2608 46.4028 54.2608C47.8059 54.2592 48.3106 53.7608 48.3106 52.3701C48.3106 46.2387 48.3106 40.1088 48.3106 33.9774C48.3106 32.5508 47.8122 32.0539 46.3731 32.0539C38.0135 32.0539 29.6539 32.0539 21.2943 32.0539C19.8818 32.0539 19.3833 32.5461 19.3833 33.9431C19.3833 40.0745 19.3833 46.2043 19.3833 52.3357C19.3833 53.7795 19.8661 54.2608 21.3115 54.2623C27.2163 54.2623 33.1196 54.2733 39.0245 54.2483C39.7635 54.2452 40.3214 54.4217 40.8198 54.9858C41.562 55.8249 42.373 56.603 43.1543 57.4077L43.1558 57.4062ZM17.6051 36.0556C17.3958 36.1369 17.2598 36.1666 17.1489 36.2353C16.5207 36.6213 15.9145 36.5884 15.2801 36.2244C14.2676 35.6431 13.2269 35.1134 12.2191 34.5259C11.5847 34.1571 11.4628 33.7227 11.7722 33.2321C12.0738 32.7508 12.541 32.7008 13.141 33.043C14.0191 33.5446 14.8988 34.0462 15.7989 34.5087C16.5473 34.8931 17.5989 34.2353 17.6395 33.393C17.713 31.8243 18.8192 30.5695 20.3724 30.3617C20.9677 30.282 21.5787 30.332 22.1787 30.2852C22.3865 30.268 22.6522 30.1914 22.7787 30.0445C23.91 28.7242 24.6381 27.2273 24.7428 25.4538C24.8553 23.5272 23.7194 21.8146 21.8928 21.2271C20.0255 20.6271 18.1973 21.324 17.1598 23.0318C16.5551 24.0272 15.9098 24.0194 15.2926 23.0209C14.5332 21.7896 13.4332 21.0818 11.9847 21.0193C9.29868 20.9052 7.32519 23.2818 7.75645 26.0475C7.9924 27.5585 8.67991 28.8445 9.62056 30.0226C9.97839 30.4711 9.91588 30.9352 9.51587 31.2633C9.12211 31.5867 8.62523 31.5508 8.27834 31.1305C6.74705 29.2804 5.83765 27.2038 5.96422 24.7444C6.13766 21.3802 9.38931 18.7598 12.6863 19.3208C14.0863 19.5583 15.2379 20.2271 16.2114 21.2771C16.3286 21.1709 16.4317 21.0865 16.5254 20.9927C19.638 17.9192 24.7756 19.0989 26.1647 23.2412C26.932 25.5272 26.3663 27.6648 25.2069 29.6898C25.1053 29.8664 24.9975 30.0383 24.8694 30.2523H30.6696C30.6696 26.0694 30.6805 21.9318 30.6586 17.7942C30.6555 17.1192 30.1617 16.6442 29.4914 16.5207C29.2445 16.4754 28.9883 16.4723 28.7351 16.4723C20.3943 16.4707 12.0534 16.4707 3.7126 16.4707C3.57666 16.4707 3.43915 16.466 3.30321 16.4739C2.3235 16.5254 1.7563 17.0973 1.75473 18.0817C1.75005 24.4084 1.75005 30.7352 1.75473 37.0603C1.75473 38.0697 2.336 38.6494 3.35477 38.6729C4.09542 38.6901 4.83606 38.6729 5.57671 38.6776C6.48142 38.6838 6.75799 38.9604 6.76268 39.8698C6.7658 40.4995 6.76268 41.1292 6.76268 41.9245C7.76895 40.912 8.65491 40.0385 9.51587 39.1416C9.83776 38.8057 10.1893 38.6666 10.6534 38.6697C12.7581 38.6854 14.8629 38.6776 16.9676 38.6744C17.1739 38.6744 17.3786 38.6541 17.6036 38.6432V36.0572L17.6051 36.0556Z" fill="black"/>
<path d="M40.1242 20.9724C39.6288 21.9115 38.8085 22.2709 37.76 22.2053C37.41 22.1834 37.0585 22.2084 36.7085 22.1974C35.4834 22.1615 34.5725 21.3443 34.5568 20.1099C34.5178 17.1239 34.5178 14.1379 34.5553 11.1518C34.5709 9.89088 35.4881 9.06898 36.746 9.04242C37.0569 9.03617 37.371 9.05804 37.6804 9.03617C38.6116 8.97366 39.4179 9.20336 40.0601 10.1284C40.3351 9.77681 40.6086 9.51118 40.7836 9.19086C41.5148 7.85801 42.2305 6.51735 42.9211 5.16419C43.2008 4.6173 43.5899 4.41573 44.1915 4.47198C45.7165 4.61418 46.9572 5.94859 47.0087 7.558C47.029 8.18146 47.0275 8.80803 47.0087 9.43149C46.9962 9.86275 47.1837 10.0237 47.6025 10.0174C48.5963 10.0034 49.5885 10.0065 50.5823 10.0143C52.4386 10.0299 53.5683 11.4862 53.1058 13.28C52.6136 15.1848 52.1104 17.0879 51.5979 18.9864C51.2245 20.3693 50.2494 21.1193 48.8322 21.1224C46.4165 21.1287 44.0008 21.1318 41.5867 21.1177C41.1242 21.1146 40.6632 21.0271 40.1226 20.9708L40.1242 20.9724ZM44.3165 6.30172C43.618 7.61738 42.9367 8.88304 42.2711 10.1565C41.9242 10.819 41.4445 11.3503 40.7492 11.6269C40.3882 11.7706 40.3195 11.9769 40.3226 12.3284C40.3382 14.3582 40.3648 16.3879 40.3101 18.4161C40.2914 19.0849 40.5976 19.2692 41.1305 19.3427C41.3039 19.3661 41.4805 19.3692 41.6555 19.3692C44.0118 19.3708 46.3681 19.3724 48.7244 19.3692C49.4682 19.3692 49.751 19.1567 49.9369 18.452C50.426 16.6067 50.9104 14.7613 51.3917 12.9144C51.5995 12.1175 51.3354 11.7816 50.4963 11.7753C49.4447 11.7675 48.3931 11.7894 47.3416 11.7644C46.1571 11.7362 45.2931 10.855 45.2649 9.67368C45.2493 9.01117 45.2681 8.34709 45.2571 7.68301C45.2462 7.06424 44.9712 6.60642 44.3165 6.30328V6.30172ZM36.2928 15.677C36.2928 16.7707 36.2928 17.863 36.2928 18.9567C36.2928 20.6615 36.1694 20.4318 37.81 20.4427C38.5007 20.4474 38.5726 20.3693 38.5741 19.6646C38.5773 17.2254 38.5773 14.7848 38.5741 12.3456C38.5741 10.5706 38.7288 10.8315 36.9975 10.7909C36.4506 10.7784 36.2788 11.005 36.2866 11.5206C36.3038 12.9066 36.2928 14.2926 36.2928 15.6785V15.677Z" fill="black"/>
<path d="M33.8464 40.3168C35.6214 40.3168 36.9496 41.6465 36.9558 43.4325C36.9605 45.1028 35.5339 46.5216 33.8479 46.5247C32.1573 46.5263 30.7479 45.12 30.751 43.4325C30.7541 41.6387 32.0666 40.3183 33.8479 40.3168H33.8464ZM33.8589 42.0574C33.1135 42.0512 32.5135 42.634 32.5057 43.3747C32.4979 44.1341 33.0542 44.7231 33.8042 44.7481C34.5651 44.7731 35.1902 44.1684 35.1964 43.3981C35.2027 42.67 34.5964 42.0621 33.8573 42.0559L33.8589 42.0574Z" fill="#E92B09"/>
<path d="M26.2726 40.3165C28.0602 40.315 29.368 41.6228 29.3774 43.4213C29.3852 45.1135 27.9899 46.5167 26.2914 46.5229C24.6117 46.5292 23.1694 45.1057 23.1694 43.4416C23.1694 41.665 24.507 40.3181 26.2726 40.3165ZM27.6164 43.4791C27.6555 42.7213 27.1164 42.1088 26.3711 42.065C25.6039 42.0181 24.9507 42.6041 24.9289 43.3572C24.907 44.0979 25.4773 44.712 26.2211 44.7495C26.9711 44.787 27.5774 44.2354 27.6164 43.4807V43.4791Z" fill="#E92B09"/>
<path d="M41.4261 46.523C39.7448 46.537 38.3104 45.1245 38.3057 43.4479C38.301 41.6619 39.6198 40.3244 41.3933 40.3166C43.1699 40.3103 44.4933 41.6213 44.5199 43.4151C44.5449 45.0729 43.1167 46.5089 41.4261 46.523ZM40.0682 43.3854C40.0667 44.1479 40.6261 44.7307 41.3776 44.7495C42.1448 44.7682 42.7574 44.1651 42.7589 43.3901C42.7589 42.6557 42.1589 42.0619 41.412 42.0603C40.662 42.0588 40.0698 42.6432 40.0682 43.3854Z" fill="#E92B09"/>
</g>
<defs>
<clipPath id="clip0_4886_46063">
<rect width="60" height="60" fill="white" transform="translate(0 0.5)"/>
</clipPath>
</defs>
</svg>
